<svg width="9" height="20" viewBox="0 0 9 20" fill="none" xmlns="http://www.w3.org/2000/svg">
<g clip-path="url(#clip0_292_53)">
<path d="M6.90227 0.00509684C7.1623 -0.0152102 7.4236 0.0212419 7.66869 0.112017C7.91379 0.202793 8.13704 0.345801 8.32353 0.531486C8.51003 0.717171 8.65546 0.941257 8.75012 1.18877C8.84478 1.43628 8.88649 1.70152 8.87245 1.96676V1.96176C8.84174 2.63726 8.55674 3.27475 8.07666 3.74185C7.59657 4.20895 6.95829 4.46975 6.29436 4.4701L6.24118 4.46926H6.24363C5.98008 4.49851 5.71345 4.4667 5.46367 4.37622C5.21389 4.28575 4.98742 4.13894 4.80118 3.94677C4.61494 3.7546 4.47376 3.52204 4.38819 3.26648C4.30261 3.01091 4.27486 2.73896 4.30699 2.47093L4.30618 2.47926C4.33093 1.80071 4.61808 1.15965 5.10501 0.695857C5.59195 0.232065 6.23916 -0.0168346 6.90554 0.00343017H6.90145L6.90227 0.00509684ZM2.85472 20.0001C1.81727 20.0001 1.05554 19.3476 1.78209 16.4784L2.97336 11.3884C3.18118 10.5734 3.21472 10.2476 2.97336 10.2476C2.08725 10.4751 1.24692 10.8583 0.490177 11.3801L0.517177 11.3626L-0.000732422 10.4818C2.52418 8.29676 5.43036 7.01593 6.674 7.01593C7.71145 7.01593 7.8849 8.2876 7.36536 10.2443L6.00227 15.5951C5.76009 16.5409 5.86481 16.8668 6.10536 16.8668C6.97295 16.6666 7.77797 16.2496 8.44781 15.6534L8.44127 15.6593L9.03036 16.4751C6.57254 19.0184 3.89136 20.0018 2.8539 20.0018L2.85472 20.0001Z" fill="#C095FF"/>
</g>
<defs>
<clipPath id="clip0_292_53">
<rect width="9" height="20" fill="white"/>
</clipPath>
</defs>
</svg>
