<svg width="19" height="19" viewBox="0 0 19 19" fill="none" xmlns="http://www.w3.org/2000/svg">
<path d="M8.51562 9.5C8.51562 9.76107 8.61933 10.0115 8.80394 10.1961C8.98854 10.3807 9.23892 10.4844 9.49999 10.4844C9.76107 10.4844 10.0114 10.3807 10.1961 10.1961C10.3807 10.0115 10.4844 9.76107 10.4844 9.5C10.4844 9.23893 10.3807 8.98855 10.1961 8.80394C10.0114 8.61934 9.76107 8.51562 9.49999 8.51562C9.23892 8.51562 8.98854 8.61934 8.80394 8.80394C8.61933 8.98855 8.51562 9.23893 8.51562 9.5ZM12.6172 9.5C12.6172 9.76107 12.7209 10.0115 12.9055 10.1961C13.0901 10.3807 13.3405 10.4844 13.6016 10.4844C13.8626 10.4844 14.113 10.3807 14.2976 10.1961C14.4822 10.0115 14.5859 9.76107 14.5859 9.5C14.5859 9.23893 14.4822 8.98855 14.2976 8.80394C14.113 8.61934 13.8626 8.51562 13.6016 8.51562C13.3405 8.51562 13.0901 8.61934 12.9055 8.80394C12.7209 8.98855 12.6172 9.23893 12.6172 9.5ZM4.41406 9.5C4.41406 9.76107 4.51777 10.0115 4.70237 10.1961C4.88698 10.3807 5.13736 10.4844 5.39843 10.4844C5.6595 10.4844 5.90988 10.3807 6.09449 10.1961C6.2791 10.0115 6.38281 9.76107 6.38281 9.5C6.38281 9.23893 6.2791 8.98855 6.09449 8.80394C5.90988 8.61934 5.6595 8.51562 5.39843 8.51562C5.13736 8.51562 4.88698 8.61934 4.70237 8.80394C4.51777 8.98855 4.41406 9.23893 4.41406 9.5ZM17.9738 5.93984C17.5103 4.83857 16.8459 3.8501 15.9989 3.00107C15.1579 2.15699 14.1594 1.48603 13.0602 1.02617C11.9322 0.552441 10.7346 0.3125 9.49999 0.3125H9.45898C8.21621 0.318652 7.0124 0.564746 5.88037 1.04873C4.79051 1.5133 3.80143 2.18545 2.96826 3.02773C2.12949 3.87471 1.47119 4.85908 1.01591 5.95625C0.544233 7.09238 0.306342 8.30029 0.312494 9.54307C0.319453 10.9673 0.656393 12.3705 1.29687 13.6426V16.7598C1.29687 17.01 1.39626 17.2499 1.57317 17.4268C1.75009 17.6037 1.99003 17.7031 2.24023 17.7031H5.35947C6.63155 18.3436 8.03477 18.6805 9.45898 18.6875H9.50204C10.7305 18.6875 11.922 18.4496 13.0437 17.9841C14.1375 17.5297 15.1322 16.8666 15.9723 16.0317C16.8192 15.193 17.4857 14.2127 17.9513 13.1196C18.4352 11.9876 18.6813 10.7838 18.6875 9.54102C18.6936 8.29209 18.4517 7.08008 17.9738 5.93984ZM14.8751 14.9223C13.4375 16.3455 11.5303 17.1289 9.49999 17.1289H9.46513C8.22851 17.1228 7.00009 16.8151 5.91523 16.2368L5.74296 16.1445H2.85546V13.257L2.76318 13.0848C2.18486 11.9999 1.87724 10.7715 1.87109 9.53486C1.86288 7.49023 2.64423 5.5707 4.07773 4.1249C5.50917 2.6791 7.42255 1.8793 9.46718 1.87109H9.50204C10.5274 1.87109 11.5221 2.07002 12.4593 2.46377C13.3739 2.84727 14.1942 3.39893 14.8997 4.10439C15.6031 4.80781 16.1568 5.63018 16.5403 6.54482C16.9382 7.49229 17.1371 8.49717 17.133 9.53486C17.1207 11.5774 16.3188 13.4908 14.8751 14.9223Z" fill="#C095FF"/>
</svg>
