<svg width="23" height="28" viewBox="0 0 23 28" fill="none" xmlns="http://www.w3.org/2000/svg">
<path d="M14.1192 2.03168C13.7793 1.68063 13.3723 1.40149 12.9223 1.21086C12.4724 1.02023 11.9887 0.921997 11.5001 0.921997C11.0114 0.921997 10.5277 1.02023 10.0778 1.21086C9.62784 1.40149 9.22082 1.68063 8.88089 2.03168L1.88235 9.25918C1.48131 9.67335 1.21152 10.1983 1.10652 10.7671C0.257943 15.4019 0.195332 20.1465 0.921307 24.8021L1.17797 26.45C1.25964 26.9706 1.70881 27.3542 2.23527 27.3542H7.12506C7.31845 27.3542 7.50391 27.2774 7.64066 27.1406C7.7774 27.0039 7.85422 26.8184 7.85422 26.625V16.4167H15.1459V26.625C15.1459 26.8184 15.2227 27.0039 15.3595 27.1406C15.4962 27.2774 15.6817 27.3542 15.8751 27.3542H20.7649C21.02 27.355 21.2669 27.2642 21.4607 27.0982C21.6545 26.9323 21.7822 26.7022 21.8207 26.45L22.0788 24.8021C22.8048 20.1465 22.7422 15.4019 21.8936 10.7671C21.7896 10.1985 21.5191 9.6737 21.1163 9.25918L14.1192 2.03168Z" fill="#CDACFF"/>
</svg>
