<svg width="21" height="19" viewBox="0 0 21 19" fill="none" xmlns="http://www.w3.org/2000/svg">
<path d="M20.5 10.375H13V14.8218C13.0017 15.4725 13.2041 16.1095 13.5837 16.6593C13.9634 17.2092 14.5049 17.6494 15.1458 17.9293L16.75 18.625L18.3542 17.9286C18.9951 17.6487 19.5366 17.2085 19.9163 16.6586C20.2959 16.1088 20.4983 15.4718 20.5 14.8211V10.375ZM16.75 17.1029L15.7877 16.6856C15.4032 16.5179 15.0782 16.2539 14.8503 15.9241C14.6225 15.5943 14.501 15.2121 14.5 14.8218V11.75H19V14.8218C18.9988 15.212 18.8773 15.594 18.6495 15.9237C18.4216 16.2533 18.0967 16.5172 17.7122 16.6849L16.75 17.1029ZM10.75 10.375H1.75C1.35218 10.375 0.970644 10.5199 0.68934 10.7777C0.408035 11.0356 0.25 11.3853 0.25 11.75V15.1875C0.25 15.5522 0.408035 15.9019 0.68934 16.1598C0.970644 16.4176 1.35218 16.5625 1.75 16.5625H10.75V15.1875H1.75V11.75H10.75V10.375ZM18.25 0.75H14.5C14.1022 0.75 13.7206 0.894866 13.4393 1.15273C13.158 1.41059 13 1.76033 13 2.125V8.3125H14.5V2.125H18.25V8.3125H19.75V2.125C19.75 1.76033 19.592 1.41059 19.3107 1.15273C19.0294 0.894866 18.6478 0.75 18.25 0.75ZM9.25 0.75H1.75C1.35218 0.75 0.970644 0.894866 0.68934 1.15273C0.408035 1.41059 0.25 1.76033 0.25 2.125V6.9375C0.25 7.30217 0.408035 7.65191 0.68934 7.90977C0.970644 8.16763 1.35218 8.3125 1.75 8.3125H9.25C9.64782 8.3125 10.0294 8.16763 10.3107 7.90977C10.592 7.65191 10.75 7.30217 10.75 6.9375V2.125C10.75 1.76033 10.592 1.41059 10.3107 1.15273C10.0294 0.894866 9.64782 0.75 9.25 0.75ZM1.75 6.9375V2.125H9.25V6.9375H1.75Z" fill="#C095FF"/>
</svg>
