<svg width="21" height="21" viewBox="0 0 21 21" fill="none" xmlns="http://www.w3.org/2000/svg">
<path d="M13.125 13.125H19.6875V14.4375H13.125V13.125ZM13.125 15.75H17.0625V17.0625H13.125V15.75Z" fill="#C095FF"/>
<path d="M19.6875 11.1562V10.5C19.6858 8.5941 19.0908 6.73604 17.9851 5.18364C16.8795 3.63124 15.3181 2.46149 13.5175 1.83672C11.717 1.21196 9.76656 1.16316 7.93701 1.69711C6.10745 2.23106 4.48947 3.32126 3.3076 4.81643C2.12573 6.31161 1.43858 8.13759 1.34151 10.041C1.24444 11.9444 1.74226 13.8308 2.7659 15.4385C3.78953 17.0461 5.28821 18.2953 7.05395 19.0126C8.8197 19.7299 10.7649 19.8797 12.6197 19.4414L12.3178 18.1643C11.7221 18.3049 11.1121 18.3756 10.5 18.375C10.3753 18.375 10.2539 18.3625 10.1306 18.3573C8.70643 16.2226 7.92913 13.7221 7.89209 11.1562H19.6875ZM18.3481 9.84373H14.4211C14.3477 7.42577 13.7252 5.05619 12.6007 2.91439C14.1512 3.34515 15.533 4.23986 16.5604 5.47846C17.5879 6.71706 18.2112 8.24028 18.3481 9.84373ZM10.8695 2.6427C12.2936 4.77735 13.0709 7.27789 13.108 9.84373H7.89209C7.92913 7.27789 8.70643 4.77735 10.1306 2.6427C10.2539 2.63811 10.3753 2.62498 10.5 2.62498C10.6247 2.62498 10.7461 2.63745 10.8695 2.6427ZM8.39937 2.91439C7.27484 5.05619 6.65232 7.42577 6.57893 9.84373H2.65259C2.78938 8.24045 3.41322 6.71735 4.44043 5.47877C5.46763 4.24019 6.84906 3.34538 8.39937 2.91439ZM8.39937 18.0856C6.84906 17.6546 5.46763 16.7598 4.44043 15.5212C3.41322 14.2826 2.78938 12.7595 2.65259 11.1562H6.57893C6.65232 13.5742 7.27484 15.9438 8.39937 18.0856Z" fill="#C095FF"/>
</svg>
