<svg width="18" height="18" viewBox="0 0 18 18" fill="none" xmlns="http://www.w3.org/2000/svg">
<path d="M15.7074 13.0369C15.1696 12.4988 14.5413 12.0595 13.8512 11.7393C14.8244 10.9508 15.4453 9.74767 15.4453 8.39845C15.4453 6.01798 13.4601 4.06505 11.0797 4.10158C8.73573 4.1381 6.84726 6.04806 6.84726 8.39845C6.84726 9.74767 7.47031 10.9508 8.4414 11.7393C7.75113 12.0593 7.12275 12.4986 6.58515 13.0369C5.4121 14.2121 4.74609 15.7633 4.70312 17.4176C4.70254 17.4405 4.70657 17.4633 4.71495 17.4847C4.72333 17.506 4.7359 17.5255 4.75191 17.5419C4.76793 17.5583 4.78707 17.5714 4.80821 17.5803C4.82935 17.5892 4.85206 17.5938 4.87499 17.5938H6.07812C6.1705 17.5938 6.24784 17.5207 6.24999 17.4283C6.29081 16.1822 6.7957 15.0156 7.683 14.1305C8.13705 13.674 8.67713 13.3121 9.27197 13.0658C9.86681 12.8195 10.5046 12.6935 11.1484 12.6953C12.4568 12.6953 13.6879 13.2045 14.6139 14.1305C15.499 15.0156 16.0039 16.1822 16.0469 17.4283C16.049 17.5207 16.1264 17.5938 16.2187 17.5938H17.4219C17.4448 17.5938 17.4675 17.5892 17.4887 17.5803C17.5098 17.5714 17.5289 17.5583 17.5449 17.5419C17.561 17.5255 17.5735 17.506 17.5819 17.4847C17.5903 17.4633 17.5943 17.4405 17.5937 17.4176C17.5508 15.7633 16.8848 14.2121 15.7074 13.0369ZM11.1484 11.1485C10.4137 11.1485 9.72187 10.8627 9.20409 10.3428C8.94425 10.085 8.73899 9.77749 8.60057 9.43864C8.46215 9.09979 8.3934 8.73652 8.39843 8.37052C8.40488 7.66584 8.68632 6.98478 9.17831 6.4799C9.69394 5.95138 10.3836 5.65705 11.1205 5.64845C11.8488 5.64201 12.5557 5.9256 13.0756 6.43478C13.6084 6.95685 13.9006 7.65509 13.9006 8.39845C13.9006 9.13322 13.6148 9.82287 13.0949 10.3428C12.8398 10.5991 12.5365 10.8023 12.2024 10.9406C11.8682 11.0788 11.51 11.1495 11.1484 11.1485ZM5.76659 8.96564C5.74726 8.77873 5.73652 8.58966 5.73652 8.39845C5.73652 8.05685 5.76874 7.72384 5.8289 7.39943C5.84394 7.32209 5.80312 7.24259 5.73222 7.21037C5.44003 7.07931 5.17148 6.89884 4.93945 6.67111C4.66604 6.40601 4.45089 6.08682 4.30773 5.73392C4.16457 5.38103 4.09655 5.00216 4.108 4.6215C4.12734 3.93185 4.40449 3.27658 4.88788 2.78244C5.41855 2.23888 6.13183 1.9424 6.89023 1.95099C7.57558 1.95744 8.2373 2.2217 8.73788 2.69005C8.90761 2.84904 9.0537 3.02521 9.17617 3.21427C9.21913 3.28088 9.30292 3.3088 9.37597 3.28302C9.7541 3.15197 10.1537 3.05959 10.5641 3.01662C10.6844 3.00373 10.7531 2.87482 10.6994 2.7674C10.0012 1.38595 8.5746 0.432047 6.9246 0.406266C4.54199 0.369742 2.55683 2.32267 2.55683 4.70099C2.55683 6.05021 3.17773 7.25334 4.15097 8.04181C3.46777 8.35763 2.83827 8.79377 2.29257 9.33947C1.11523 10.5147 0.449211 12.0658 0.406243 13.7223C0.405669 13.7452 0.409691 13.768 0.418072 13.7894C0.426452 13.8107 0.439021 13.8302 0.455039 13.8466C0.471056 13.863 0.490198 13.8761 0.511336 13.885C0.532474 13.8939 0.555181 13.8985 0.578118 13.8985H1.78339C1.87577 13.8985 1.95312 13.8254 1.95527 13.733C1.99609 12.4869 2.50097 11.3203 3.38827 10.4352C4.01991 9.80353 4.79335 9.36525 5.63769 9.15255C5.72148 9.13107 5.77734 9.05158 5.76659 8.96564Z" fill="#C095FF"/>
</svg>
